<svg xmlns="http://www.w3.org/2000/svg" width="512" height="512" viewBox="0 0 160 160">
  <rect x="16" y="16" width="128" height="128" rx="28" fill="#1E293B"/>
  <path d="M48 66 L48 52 C48 46, 54 40, 60 40 L100 40 C106 40, 112 46, 112 52 L112 70 C112 76, 106 82, 100 82 L84 82 L72 94 L75 82 L60 82 C54 82, 48 76, 48 70 Z" fill="none" stroke="#60A5FA" stroke-width="2.5" stroke-linejoin="round"/>
  <path d="M62 54 L98 54" stroke="#60A5FA" stroke-width="2.2" stroke-linecap="round" opacity="0.6"/>
  <path d="M62 64 L88 64" stroke="#60A5FA" stroke-width="2.2" stroke-linecap="round" opacity="0.6"/>
  <line x1="80" y1="88" x2="80" y2="96" stroke="#475569" stroke-width="1.5" stroke-dasharray="2 2"/>
  <circle cx="54" cy="104" r="3.5" fill="#34D399"/>
  <path d="M62 104 L102 104" stroke="#34D399" stroke-width="2.2" stroke-linecap="round" opacity="0.8"/>
  <circle cx="54" cy="116" r="3.5" fill="#34D399" opacity="0.5"/>
  <path d="M62 116 L90 116" stroke="#34D399" stroke-width="2.2" stroke-linecap="round" opacity="0.5"/>
</svg>
